<svg width="15" height="20" viewBox="0 0 15 20" fill="none" xmlns="http://www.w3.org/2000/svg">
<path d="M6.54751 19.6541C11.2442 19.6541 14.1667 16.2531 14.1667 11.8653C14.1667 10.2111 13.8925 8.71739 11.9817 8.26862C12.4467 7.01732 13.7883 3.39769 13.7883 2.23811C13.7883 1.21691 13.1633 0.361143 12.0492 0.361143C10.2733 0.361143 8.68167 5.41633 8.18334 6.62178C7.7975 5.5277 5.99084 0 4.39834 0C3.16084 0 2.58001 0.8787 2.58001 1.98424C2.58001 3.33955 3.94084 6.85189 4.43417 8.20311C4.18417 8.11467 3.91334 8.03769 3.6375 8.03769C2.70584 8.03769 1.715 9.15469 1.715 10.0571C1.715 10.3986 1.91 10.8785 2.03334 11.1971C0.565005 11.5812 4.77463e-06 12.5254 4.77463e-06 13.9495C-0.00416189 16.7207 2.71917 19.6541 6.54751 19.6541ZM10.5725 4.14619C10.7325 3.67367 11.4125 1.67796 12.0492 1.67796C12.3917 1.67796 12.4833 2.01945 12.4833 2.29215C12.4833 3.02509 10.9475 7.07546 10.6083 7.97299L9.255 7.74288L10.5725 4.14619ZM3.83 1.85485V1.85403C3.83 1.39708 4.40751 0.0999083 5.67251 3.66221L7.05 7.51276C6.42917 7.46281 5.94751 7.39729 5.64167 7.56681C5.20751 6.46127 3.83 2.97186 3.83 1.85485ZM3.73834 9.36598L3.73917 9.36679C4.905 9.36679 6.41001 12.9979 6.41001 13.4892C6.41001 13.685 6.215 13.9265 5.98834 13.9265C5.15584 13.9265 2.92667 10.9743 2.92667 10.1759C2.93001 9.88026 3.43167 9.36598 3.73834 9.36598ZM2.39834 12.3714C2.85167 12.3714 4.55917 14.6865 4.55917 15.1778C4.55917 15.3662 4.2525 15.4964 4.09417 15.4964C3.45334 15.4964 3.2025 14.901 2.06084 13.5236C0.878338 14.6636 2.87667 16.8591 4.38167 16.8591C5.42001 16.8591 6.09667 15.9304 5.89417 15.2466C6.04167 15.2466 6.22417 15.2581 6.36 15.2237C6.40417 16.2637 6.7225 17.5036 8.02001 17.592C8.02001 17.5576 8.10001 17.3193 8.10001 17.3079C8.10001 16.6396 7.67834 16.0565 7.67834 15.3768C7.67834 14.2901 8.54167 13.2386 9.41751 12.6245C9.73584 12.3943 10.1225 12.2518 10.4958 12.1216C10.8825 11.98 11.2925 11.8145 11.5858 11.5304C11.5417 11.1004 11.3592 10.7205 10.9133 10.7205C9.81084 10.7205 6.11334 10.8744 6.11334 9.19646C6.11334 8.93932 6.11751 8.69364 6.80667 8.69364C8.09251 8.69364 11.3567 9.00074 12.3117 9.81065C13.0317 10.4289 13.2792 14.1558 11.0775 16.5168L11.075 16.5176C9.91667 17.746 8.43584 18.3831 6.70834 18.3831C4.34417 18.3831 2.47667 17.1318 1.5775 14.9936C0.896672 13.3279 1.72917 12.3714 2.39834 12.3714ZM7.14917 11.6802C7.53667 11.7998 7.93417 11.835 8.33251 11.9112C8.03751 12.1184 7.77584 12.3722 7.52417 12.6441C7.41251 12.3182 7.27667 11.9996 7.14917 11.6802Z" fill="#505F79"/>
</svg>
