<svg width="24" height="24" viewBox="0 0 24 24" fill="none" xmlns="http://www.w3.org/2000/svg">
<path d="M15.5906 10.0001L13.0049 12.5858V3.00006C13.0049 2.96554 13.0031 2.93143 12.9997 2.89782C12.9485 2.39356 12.5226 2.00006 12.0049 2.00006C11.4526 2.00006 11.0049 2.44778 11.0049 3.00006V12.5858L8.41907 10C8.02855 9.60951 7.39539 9.60951 7.00486 10C6.61434 10.3906 6.61434 11.0237 7.00486 11.4143L11.2978 15.7072C11.4853 15.8947 11.7397 16.0001 12.0049 16.0001C12.2701 16.0001 12.5245 15.8947 12.712 15.7072L17.0049 11.4143C17.0537 11.3655 17.0964 11.3129 17.133 11.2574C17.3893 10.8693 17.3466 10.3418 17.0049 10.0001C16.6143 9.60955 15.9812 9.60955 15.5906 10.0001Z" fill="#d0d0d0"/>
<path d="M3.00488 20C3.00488 19.4477 3.4526 19 4.00488 19H20.0049C20.5572 19 21.0049 19.4477 21.0049 20C21.0049 20.5523 20.5572 21 20.0049 21H4.00488C3.4526 21 3.00488 20.5523 3.00488 20Z" fill="#d0d0d0"/>
</svg>
