<svg width="18" height="20" viewBox="0 0 18 20" fill="none" xmlns="http://www.w3.org/2000/svg">
<path d="M17.9852 7.33208C17.9852 6.2119 17.6192 5.15961 16.9205 4.2431C17.1867 3.36054 17.2532 2.24036 17.1867 0.950455C17.1534 0.407338 16.7209 0 16.1885 0C15.8891 0 13.3604 0.0339448 11.8965 1.35779C10.6321 1.12018 9.30128 1.12018 8.00368 1.35779C6.573 0.0339448 4.04435 0 3.71163 0C3.17928 0 2.74675 0.407338 2.71348 0.950455C2.61366 2.24036 2.71348 3.36054 2.97965 4.2431C2.28095 5.19356 1.91496 6.24585 1.91496 7.33208C1.91496 9.70822 3.71163 11.8467 6.43991 12.8651C6.3401 13.0688 6.27355 13.3064 6.20701 13.544C3.31237 13.2385 1.94823 10.5568 1.88169 10.455C1.64878 9.94583 1.04989 9.74216 0.550818 10.0137C0.0517425 10.2513 -0.147888 10.8623 0.118286 11.3715C0.184829 11.5412 2.01477 15.1733 6.04065 15.5807V18.6357C6.04065 19.2128 6.47319 19.6541 7.0388 19.6541H12.8614C13.427 19.6541 13.8595 19.2128 13.8595 18.6357V14.5963C13.8595 13.9853 13.7264 13.4082 13.4935 12.899C16.1885 11.8467 17.9852 9.74216 17.9852 7.33208Z" fill="#505F79"/>
</svg>
