<svg width="20" height="20" viewBox="0 0 20 20" fill="none" xmlns="http://www.w3.org/2000/svg">
<path d="M13.6444 2.98242C10.1556 2.98242 7.28857 5.7611 7.28857 9.2175V18.9768C7.28857 19.3495 7.59946 19.6545 7.97942 19.6545H11.5718C11.9518 19.6545 12.2627 19.3495 12.2627 18.9768V9.48859C12.2627 8.74309 12.8844 8.13314 13.6444 8.13314C14.4043 8.13314 15.0261 8.74309 15.0261 9.48859V18.9768C15.0261 19.3495 15.3369 19.6545 15.7169 19.6545H19.3093C19.6893 19.6545 20.0001 19.3495 20.0001 18.9768V9.2175C20.0001 5.79499 17.1677 2.98242 13.6444 2.98242Z" fill="#505F79"/>
<path d="M2.48705 0C1.10535 0 0 1.08419 0 2.43943C0 3.79467 1.10535 4.87886 2.48705 4.87886C3.86874 4.87886 4.97409 3.79467 4.97409 2.43943C4.97409 1.08419 3.86874 0 2.48705 0Z" fill="#505F79"/>
<path d="M4.28325 6.16699H0.690846C0.310881 6.16699 0 6.47197 0 6.84472V18.976C0 19.3488 0.310881 19.6537 0.690846 19.6537H4.28325C4.66321 19.6537 4.97409 19.3488 4.97409 18.976V6.84472C4.97409 6.47197 4.66321 6.16699 4.28325 6.16699Z" fill="#505F79"/>
</svg>
