<svg width="20" height="17" viewBox="0 0 20 17" fill="none" xmlns="http://www.w3.org/2000/svg">
<path d="M18.4042 2.81372L20 1.29766V0.96582H14.4717L10.5317 10.7043L6.04917 0.96582H0.2525V1.29766L2.11667 3.52623C2.29833 3.69091 2.39333 3.93172 2.36917 4.17419V12.932C2.42667 13.2473 2.32333 13.5717 2.1 13.801L0 16.3283V16.656H5.95417V16.3241L3.85417 13.801C3.62667 13.5709 3.51917 13.2523 3.565 12.932V5.35674L8.79167 16.6601H9.39917L13.8933 5.35674V14.3612C13.8933 14.5987 13.8933 14.6475 13.7367 14.8031L12.12 16.3564V16.6891H19.9633V16.3572L18.405 14.842C18.2683 14.7394 18.1975 14.5673 18.2267 14.4001V3.25562C18.1975 3.08763 18.2675 2.9155 18.4042 2.81372Z" fill="#505F79"/>
</svg>
