<svg width="20" height="20" viewBox="0 0 20 20" fill="none" xmlns="http://www.w3.org/2000/svg">
<path d="M19.7587 0.387601C19.4253 -0.00417347 18.8587 -0.102117 18.4253 0.191714L16.492 1.49763C15.592 0.55084 14.3253 0.0284744 12.9587 0.0284744C10.2587 0.0284744 8.02532 2.18323 8.02532 4.86036C8.02532 5.25213 8.05865 5.61126 8.15865 5.97038C5.82532 5.48066 4.42532 3.81562 3.89198 0.812023C3.82532 0.420249 3.52532 0.126418 3.12532 0.0284744C2.75865 -0.0694692 2.35865 0.0937701 2.12532 0.387601C2.05865 0.452896 -3.44135 7.9619 4.52532 14.3282C3.75865 15.928 1.45865 17.2992 0.558651 17.7563C0.125318 17.9521 -0.0746825 18.4092 0.0253175 18.8663C0.125318 19.3234 0.525318 19.6172 0.991984 19.6172H2.72532C12.8587 19.6172 17.4587 14.6874 17.5587 3.65239L19.6587 1.69351C20.0587 1.36704 20.092 0.779375 19.7587 0.387601Z" fill="#505F79"/>
</svg>
